<?xml version="1.0" encoding="UTF-8"?>
<!DOCTYPE svg PUBLIC "-//W3C//DTD SVG 1.1//EN" "http://www.w3.org/Graphics/SVG/1.1/DTD/svg11.dtd">
<svg xmlns="http://www.w3.org/2000/svg" version="1.1" width="900px" height="250px" style="shape-rendering:geometricPrecision; text-rendering:geometricPrecision; image-rendering:optimizeQuality; fill-rule:evenodd; clip-rule:evenodd" xmlns:xlink="http://www.w3.org/1999/xlink">
<g><path style="opacity:1" fill="#18283f" d="M 779.5,33.5 C 788.36,31.7422 795.86,34.0756 802,40.5C 807.503,60.6799 799.669,69.5133 778.5,67C 768.136,62.7716 764.303,55.2716 767,44.5C 769.505,38.8218 773.671,35.1552 779.5,33.5 Z"/></g>
<g><path style="opacity:1" fill="#15263d" d="M 887.5,79.5 C 888.492,79.3284 889.158,79.6618 889.5,80.5C 888.423,85.0664 886.756,89.3997 884.5,93.5C 877.892,92.5383 871.226,92.2049 864.5,92.5C 864.333,108.837 864.5,125.17 865,141.5C 867.386,156.357 874.72,159.357 887,150.5C 889.416,147.337 891.582,144.004 893.5,140.5C 895.833,138.998 897.499,139.498 898.5,142C 895.192,150.757 892.192,159.59 889.5,168.5C 882.354,170.953 875.02,172.787 867.5,174C 854.039,176.598 842.539,173.098 833,163.5C 830.133,158.901 828.966,153.901 829.5,148.5C 829.5,129.5 829.5,110.5 829.5,91.5C 825.167,91.5 820.833,91.5 816.5,91.5C 816.366,89.7085 816.699,88.0418 817.5,86.5C 830.092,79.6293 834.092,69.2959 829.5,55.5C 841.503,52.4998 852.836,47.8332 863.5,41.5C 864.499,54.1492 864.832,66.8158 864.5,79.5C 872.167,79.5 879.833,79.5 887.5,79.5 Z"/></g>
<g><path style="opacity:1" fill="#364659" d="M 289.5,48.5 C 257.167,48.5 224.833,48.5 192.5,48.5C 192.5,49.8333 192.5,51.1667 192.5,52.5C 191.549,51.0813 191.216,49.4147 191.5,47.5C 224.338,47.1684 257.004,47.5017 289.5,48.5 Z"/></g>
<g><path style="opacity:1" fill="#fe5925" d="M 56.5,164.5 C 56.8212,166.048 57.8212,166.715 59.5,166.5C 62.9103,166.384 64.2436,168.05 63.5,171.5C 43.1667,171.5 22.8333,171.5 2.5,171.5C 2.34332,170.127 2.50999,168.793 3,167.5C 9.69843,165.797 13.0318,161.464 13,154.5C 13.6667,124.5 13.6667,94.5 13,64.5C 12.9243,57.2784 9.42428,53.2784 2.5,52.5C 2.5,50.8333 2.5,49.1667 2.5,47.5C 22.8333,47.5 43.1667,47.5 63.5,47.5C 63.6567,48.8734 63.49,50.2068 63,51.5C 56.7693,53.0656 53.436,57.0656 53,63.5C 52.3333,94.1667 52.3333,124.833 53,155.5C 53.1174,158.963 54.2841,161.963 56.5,164.5 Z"/></g>
<g><path style="opacity:1" fill="#16273e" d="M 289.5,48.5 C 308.235,50.0539 314.735,59.7206 309,77.5C 307.248,80.672 305.248,83.672 303,86.5C 297.284,91.0576 291.451,95.3909 285.5,99.5C 301.626,117.072 313.126,137.406 320,160.5C 322.424,164.432 325.924,166.432 330.5,166.5C 330.739,168.467 330.406,170.301 329.5,172C 308.503,172.5 287.503,172.667 266.5,172.5C 266.5,170.5 266.5,168.5 266.5,166.5C 268.827,166.335 270.993,165.669 273,164.5C 273.767,160.406 273.434,156.406 272,152.5C 265.477,138.096 256.977,125.096 246.5,113.5C 245.264,114.246 243.93,114.579 242.5,114.5C 241.17,120.966 240.503,127.799 240.5,135C 240.5,142.008 240.834,148.842 241.5,155.5C 241.431,162.408 244.764,166.075 251.5,166.5C 251.739,168.467 251.406,170.301 250.5,172C 230.996,172.829 211.662,172.662 192.5,171.5C 192.366,169.708 192.699,168.042 193.5,166.5C 197.854,165.644 200.354,162.977 201,158.5C 201.667,125.833 201.667,93.1667 201,60.5C 200.111,55.688 197.277,53.0213 192.5,52.5C 192.5,51.1667 192.5,49.8333 192.5,48.5C 224.833,48.5 257.167,48.5 289.5,48.5 Z M 242.5,100.5 C 241.505,89.6794 241.172,78.6794 241.5,67.5C 242.68,64.1554 245.013,61.9887 248.5,61C 267.448,58.6095 273.948,66.4428 268,84.5C 261.468,92.846 252.968,98.1794 242.5,100.5 Z"/></g>
<g><path style="opacity:1" fill="#acb2ba" d="M 241.5,67.5 C 241.172,78.6794 241.505,89.6794 242.5,100.5C 242.44,101.043 242.107,101.376 241.5,101.5C 240.176,90.0069 240.176,78.6735 241.5,67.5 Z"/></g>
<g><path style="opacity:1" fill="#fe5b27" d="M 68.5,171.5 C 68.366,169.708 68.6993,168.042 69.5,166.5C 73.3722,165.646 75.8722,163.312 77,159.5C 77.6667,137.167 77.6667,114.833 77,92.5C 75.5323,88.0283 72.5323,85.3617 68,84.5C 67.5065,82.8659 67.3398,81.1992 67.5,79.5C 80.8759,78.764 94.2093,77.764 107.5,76.5C 110.856,80.9182 112.523,85.9182 112.5,91.5C 112.686,96.3095 113.686,96.6429 115.5,92.5C 129.302,77.3829 145.968,72.8829 165.5,79C 171.984,83.7959 175.484,90.2959 176,98.5C 176.333,118.167 176.667,137.833 177,157.5C 178.096,162.765 181.263,165.765 186.5,166.5C 186.5,168.167 186.5,169.833 186.5,171.5C 167.5,171.5 148.5,171.5 129.5,171.5C 129.5,169.833 129.5,168.167 129.5,166.5C 135.273,166.231 138.773,163.231 140,157.5C 140.667,140.167 140.667,122.833 140,105.5C 139.05,97.9158 134.883,95.4158 127.5,98C 122.427,99.4056 118.927,102.572 117,107.5C 115.263,111.661 114.263,115.995 114,120.5C 113.333,132.167 113.333,143.833 114,155.5C 115.222,161.722 118.888,165.722 125,167.5C 125.49,168.793 125.657,170.127 125.5,171.5C 106.5,171.5 87.5,171.5 68.5,171.5 Z"/></g>
<g><path style="opacity:1" fill="#17283f" d="M 432.5,136.5 C 433.11,137.391 433.443,138.391 433.5,139.5C 430.45,151.031 426.784,162.364 422.5,173.5C 419.989,172.219 417.322,171.552 414.5,171.5C 398.85,175.123 383.183,175.289 367.5,172C 340.187,163.547 327.687,145.047 330,116.5C 334.176,97.3218 345.676,84.8218 364.5,79C 378.848,74.4783 393.181,74.4783 407.5,79C 423.94,85.2756 433.607,97.1089 436.5,114.5C 414.195,118.993 391.861,123.327 369.5,127.5C 372.869,153.013 386.869,162.18 411.5,155C 420.028,150.639 426.361,144.139 430.5,135.5C 431.183,135.863 431.85,136.196 432.5,136.5 Z M 378.5,91.5 C 392.106,90.1094 398.439,96.1094 397.5,109.5C 387.583,112.051 377.583,113.884 367.5,115C 367.831,105.463 371.498,97.63 378.5,91.5 Z"/></g>
<g><path style="opacity:1" fill="#17283f" d="M 536.5,111.5 C 536.167,112.167 535.833,112.833 535.5,113.5C 534.504,113.414 533.671,113.748 533,114.5C 529.445,101.109 520.945,93.1086 507.5,90.5C 497.067,91.7747 489.567,97.108 485,106.5C 479.85,121.469 481.85,135.469 491,148.5C 498.492,156.552 507.658,159.385 518.5,157C 522.426,155.973 526.093,154.473 529.5,152.5C 532.833,151.167 535.167,148.833 536.5,145.5C 537.424,143.075 538.924,141.075 541,139.5C 542.395,139.78 543.562,140.447 544.5,141.5C 540.104,152.624 535.437,163.624 530.5,174.5C 528.137,173.323 525.637,172.657 523,172.5C 504.537,176.441 486.703,174.608 469.5,167C 445.756,151.776 438.256,130.609 447,103.5C 456.553,86.1246 471.386,76.958 491.5,76C 501.422,75.6754 511.255,76.5087 521,78.5C 523.62,77.7936 526.12,76.7936 528.5,75.5C 531.8,87.3675 534.467,99.3675 536.5,111.5 Z"/></g>
<g><path style="opacity:1" fill="#17283e" d="M 593.5,91.5 C 593.201,93.604 593.534,95.604 594.5,97.5C 595.298,97.0431 595.631,96.3764 595.5,95.5C 605.066,79.1346 618.899,73.8013 637,79.5C 649.803,78.2665 662.636,77.5998 675.5,77.5C 677.164,99.9816 678.164,122.648 678.5,145.5C 681.478,153.741 686.812,155.574 694.5,151C 699.908,146.019 703.074,139.852 704,132.5C 705.856,119.153 705.856,105.819 704,92.5C 702.432,87.5965 699.099,84.9299 694,84.5C 693.333,83.1667 693.333,81.8333 694,80.5C 708.925,78.7991 723.925,77.4657 739,76.5C 739.772,76.6448 740.439,76.9781 741,77.5C 741.333,104.833 741.667,132.167 742,159.5C 742.697,161.584 743.864,163.251 745.5,164.5C 745.821,166.048 746.821,166.715 748.5,166.5C 749.5,166.5 750.5,166.5 751.5,166.5C 751.739,168.467 751.406,170.301 750.5,172C 736.155,172.833 721.822,172.666 707.5,171.5C 705.98,166.294 705.147,160.961 705,155.5C 693.463,168.686 678.963,174.853 661.5,174C 651.769,171.936 645.603,166.103 643,156.5C 642.667,135.833 642.333,115.167 642,94.5C 641.333,88.5 638,85.1667 632,84.5C 630.385,91.3407 628.385,98.0074 626,104.5C 613.484,95.9727 603.484,98.306 596,111.5C 594.42,126.12 594.087,140.787 595,155.5C 595.381,162.326 598.881,165.993 605.5,166.5C 605.5,168.5 605.5,170.5 605.5,172.5C 586.5,172.5 567.5,172.5 548.5,172.5C 548.5,170.5 548.5,168.5 548.5,166.5C 553.737,165.765 556.904,162.765 558,157.5C 558.667,135.833 558.667,114.167 558,92.5C 556.532,88.0283 553.532,85.3617 549,84.5C 548.506,82.8659 548.34,81.1992 548.5,79.5C 561.539,78.7198 574.539,77.7198 587.5,76.5C 591.836,80.497 593.836,85.497 593.5,91.5 Z"/></g>
<g><path style="opacity:1" fill="#8c95a0" d="M 675.5,77.5 C 676.209,76.596 677.209,76.2627 678.5,76.5C 678.5,99.5 678.5,122.5 678.5,145.5C 678.164,122.648 677.164,99.9816 675.5,77.5 Z"/></g>
<g><path style="opacity:1" fill="#18283f" d="M 800.5,77.5 C 802.164,102.65 803.164,127.984 803.5,153.5C 803.303,161.292 806.97,165.625 814.5,166.5C 814.739,168.467 814.406,170.301 813.5,172C 795.167,172.667 776.833,172.667 758.5,172C 757.594,170.301 757.261,168.467 757.5,166.5C 762.489,166.682 765.655,164.349 767,159.5C 767.667,137.167 767.667,114.833 767,92.5C 765.558,88.0564 762.558,85.3897 758,84.5C 757.506,82.8659 757.34,81.1992 757.5,79.5C 771.817,78.5206 786.15,77.8539 800.5,77.5 Z"/></g>
<g><path style="opacity:1" fill="#344458" d="M 800.5,77.5 C 801.209,76.596 802.209,76.2627 803.5,76.5C 803.5,102.167 803.5,127.833 803.5,153.5C 803.164,127.984 802.164,102.65 800.5,77.5 Z"/></g>
<g><path style="opacity:1" fill="#868f9b" d="M 887.5,79.5 C 888.386,78.2241 889.386,78.2241 890.5,79.5C 890.376,80.1067 890.043,80.44 889.5,80.5C 889.158,79.6618 888.492,79.3284 887.5,79.5 Z"/></g>
<g><path style="opacity:1" fill="#abb1b9" d="M 817.5,86.5 C 816.699,88.0418 816.366,89.7085 816.5,91.5C 820.833,91.5 825.167,91.5 829.5,91.5C 829.5,110.5 829.5,129.5 829.5,148.5C 828.503,130.007 828.17,111.341 828.5,92.5C 824.167,92.5 819.833,92.5 815.5,92.5C 815.025,89.9179 815.692,87.9179 817.5,86.5 Z"/></g>
<g><path style="opacity:1" fill="#ff8e67" d="M 112.5,91.5 C 113.222,91.9175 113.722,92.5842 114,93.5C 114.383,92.944 114.883,92.6107 115.5,92.5C 113.686,96.6429 112.686,96.3095 112.5,91.5 Z"/></g>
<g><path style="opacity:1" fill="#89929d" d="M 593.5,91.5 C 594.167,92.8333 594.833,94.1667 595.5,95.5C 595.631,96.3764 595.298,97.0431 594.5,97.5C 593.534,95.604 593.201,93.604 593.5,91.5 Z"/></g>
<g><path style="opacity:1" fill="#b4bac1" d="M 536.5,111.5 C 537.757,112.623 537.424,113.289 535.5,113.5C 535.833,112.833 536.167,112.167 536.5,111.5 Z"/></g>
<g><path style="opacity:1" fill="#aeb5bc" d="M 242.5,114.5 C 241.519,128.088 241.185,141.754 241.5,155.5C 240.834,148.842 240.5,142.008 240.5,135C 240.503,127.799 241.17,120.966 242.5,114.5 Z"/></g>
<g><path style="opacity:1" fill="#a7aeb6" d="M 432.5,136.5 C 434.552,137.053 434.885,138.053 433.5,139.5C 433.443,138.391 433.11,137.391 432.5,136.5 Z"/></g>
<g><path style="opacity:1" fill="#5d6979" d="M 536.5,145.5 C 535.167,148.833 532.833,151.167 529.5,152.5C 531.5,149.833 533.833,147.5 536.5,145.5 Z"/></g>
<g><path style="opacity:1" fill="#ffa281" d="M 56.5,164.5 C 57.7095,164.932 58.7095,165.599 59.5,166.5C 57.8212,166.715 56.8212,166.048 56.5,164.5 Z"/></g>
<g><path style="opacity:1" fill="#7d8694" d="M 745.5,164.5 C 746.71,164.932 747.71,165.599 748.5,166.5C 746.821,166.715 745.821,166.048 745.5,164.5 Z"/></g>
<g><path style="opacity:1" fill="#fea88d" d="M 69.5,166.5 C 68.6993,168.042 68.366,169.708 68.5,171.5C 67.8614,170.903 67.528,170.07 67.5,169C 67.6842,167.624 68.3509,166.791 69.5,166.5 Z"/></g>
<g><path style="opacity:1" fill="#848e99" d="M 193.5,166.5 C 192.699,168.042 192.366,169.708 192.5,171.5C 191.861,170.903 191.528,170.07 191.5,169C 191.684,167.624 192.351,166.791 193.5,166.5 Z"/></g>
</svg>
